# xmcd
#
# Track frame offsets:
#	150
#	11964
#	32870
#	50975
#	70283
#	87626
#	105948
#	120966
#	142067
#	159095
#	174938
#	192720
#
# Disc length: 2819 seconds
#
# Revision: 3
# Processed by: cddbd v1.5.2PL0 Copyright (c) Steve Scherf et al.
# Submitted via: audiograbber 1.83.01
#
DISCID=a70b010c
DTITLE=Down Below - Zur Sonne - Zur Freiheit [CD1)
DYEAR=2013
DGENRE=Rock
TTITLE0=Ketu
TTITLE1=Zur Sonne - zur Freiheit
TTITLE2=Dem Himmel nie so nah
TTITLE3=Alles wird gut
TTITLE4=Unvergessene Zeit (feat. Natalia Avelon)
TTITLE5=Nordstern
TTITLE6=Feuerregen
TTITLE7=Lauf
TTITLE8=Meilenstein
TTITLE9=Neuer Horizont
TTITLE10=Bruder
TTITLE11=Abschied
EXTD=
EXTT0=
EXTT1=
EXTT2=
EXTT3=
EXTT4=
EXTT5=
EXTT6=
EXTT7=
EXTT8=
EXTT9=
EXTT10=
EXTT11=
PLAYORDER=
